<svg width="31" height="31" viewBox="0 0 31 31" fill="none" xmlns="http://www.w3.org/2000/svg">
<g clip-path="url(#clip0_2467_10457)">
<path d="M27.7319 20.7187H26.6481V19.7624H27.7319C28.4969 19.7624 29.1344 19.1249 29.1344 18.3599V11.6662C29.1344 10.4549 28.1144 9.43492 26.9031 9.43492H19.8906C18.6794 9.43492 17.6594 10.4549 17.6594 11.6662V18.3599C17.6594 19.1249 18.2969 19.7624 19.0619 19.7624H20.1456V20.7187H19.0619C17.7231 20.7187 16.7031 19.6349 16.7031 18.3599V11.6662C16.7031 9.88117 18.1056 8.47867 19.8906 8.47867H26.9669C28.7519 8.47867 30.1544 9.88117 30.1544 11.6662V18.3599C30.1544 19.6987 29.0706 20.7187 27.7319 20.7187ZM23.3969 7.45867C21.4844 7.45867 19.8906 5.86492 19.8906 3.95242C19.8906 2.03992 21.4844 0.446167 23.3969 0.446167C25.3094 0.446167 26.9031 2.03992 26.9031 3.95242C26.9031 5.86492 25.3731 7.45867 23.3969 7.45867ZM23.3969 1.46617C21.9944 1.46617 20.8469 2.61367 20.8469 4.01617C20.8469 5.41867 21.9944 6.56617 23.3969 6.56617C24.7994 6.56617 25.9469 5.41867 25.9469 4.01617C25.9469 2.61367 24.7994 1.46617 23.3969 1.46617Z" fill="#F5F5F4"/>
<path d="M25.053 30.1536C24.4155 30.1536 23.8417 29.8349 23.4592 29.3886C23.0767 29.8349 22.503 30.1536 21.8655 30.1536C20.718 30.1536 19.7617 29.1974 19.7617 28.0499V12.4949H20.718V28.0499C20.718 28.6874 21.228 29.1974 21.8655 29.1974C22.503 29.1974 22.9492 28.6236 22.9492 28.0499V20.2724H23.9055V28.0499C23.9055 28.6874 24.4155 29.1974 25.053 29.1974C25.6905 29.1974 26.2005 28.6874 26.2005 28.0499V12.4949H27.1567V28.0499C27.1567 29.1974 26.2005 30.1536 25.053 30.1536Z" fill="#F5F5F4"/>
<path d="M18.1705 23.5237H0.511719V3.50623H18.4892V4.46248H1.46797V22.5675H18.1705V23.5237Z" fill="#F5F5F4"/>
<path d="M15.0431 12.4313H4.07812V13.3875H15.0431V12.4313Z" fill="#F5F5F4"/>
<path d="M15.0431 15.6825H4.07812V16.6387H15.0431V15.6825Z" fill="#F5F5F4"/>
<path d="M15.0431 18.9974H4.07812V19.9537H15.0431V18.9974Z" fill="#F5F5F4"/>
</g>
<defs>
<clipPath id="clip0_2467_10457">
<rect width="30.6" height="30.6" fill="white"/>
</clipPath>
</defs>
</svg>
