<svg width="18" height="18" viewBox="0 0 18 18" fill="none" xmlns="http://www.w3.org/2000/svg">
<path d="M14.2174 7.81878H15.6391C15.6391 4.17214 12.886 1.42188 9.23438 1.42188V2.84357C12.1218 2.84357 14.2174 4.93559 14.2174 7.81878Z" fill="#FBBF24"/>
<path d="M9.24147 5.68715C10.7364 5.68715 11.374 6.32478 11.374 7.81969H12.7957C12.7957 5.52721 11.534 4.26546 9.24147 4.26546V5.68715ZM11.674 9.55629C11.5374 9.43214 11.3579 9.36593 11.1734 9.37163C10.9889 9.37734 10.8139 9.45451 10.6852 9.58685L8.98415 11.3362C8.5747 11.2581 7.75154 11.0014 6.90421 10.1562C6.05688 9.3082 5.80027 8.48291 5.72421 8.07631L7.47218 6.37454C7.60469 6.24597 7.68197 6.07088 7.68768 5.88634C7.69338 5.70179 7.62706 5.52227 7.50274 5.38575L4.87617 2.49759C4.7518 2.36065 4.57895 2.27758 4.39432 2.26604C4.2097 2.25449 4.02784 2.31537 3.88738 2.43574L2.34485 3.75863C2.22195 3.88197 2.14859 4.04613 2.1387 4.21997C2.12804 4.39768 1.92474 8.60731 5.18894 11.8729C8.03659 14.7199 11.6036 14.9282 12.586 14.9282C12.7296 14.9282 12.8177 14.9239 12.8412 14.9225C13.015 14.9127 13.1791 14.8391 13.3018 14.7156L14.624 13.1724C14.7445 13.032 14.8055 12.8502 14.794 12.6656C14.7826 12.4809 14.6997 12.308 14.5629 12.1836L11.674 9.55629Z" fill="#FBBF24"/>
</svg>
