<svg width="18" height="18" viewBox="0 0 18 18" fill="none" xmlns="http://www.w3.org/2000/svg">
<path d="M8.52855 1.06592C6.97375 1.06775 5.48317 1.6862 4.38376 2.78561C3.28435 3.88502 2.6659 5.3756 2.66407 6.9304C2.66221 8.20098 3.07724 9.43708 3.84549 10.4491C3.84549 10.4491 4.00544 10.6597 4.03156 10.6901L8.52855 15.9937L13.0277 10.6874C13.0511 10.6591 13.2116 10.4491 13.2116 10.4491L13.2121 10.4475C13.98 9.43592 14.3949 8.20039 14.393 6.9304C14.3912 5.3756 13.7727 3.88502 12.6733 2.78561C11.5739 1.6862 10.0833 1.06775 8.52855 1.06592ZM8.52855 9.06294C8.10677 9.06294 7.69447 8.93786 7.34377 8.70354C6.99308 8.46921 6.71975 8.13616 6.55834 7.74648C6.39693 7.35681 6.3547 6.92803 6.43699 6.51436C6.51927 6.10069 6.72238 5.72071 7.02062 5.42247C7.31886 5.12422 7.69884 4.92112 8.11251 4.83884C8.52618 4.75655 8.95497 4.79878 9.34464 4.96019C9.73431 5.1216 10.0674 5.39493 10.3017 5.74562C10.536 6.09632 10.6611 6.50862 10.6611 6.9304C10.6604 7.49577 10.4355 8.03778 10.0357 8.43755C9.63593 8.83733 9.09392 9.06223 8.52855 9.06294Z" fill="#FBBF24"/>
</svg>
