<svg width="48" height="51" viewBox="0 0 48 51" fill="none" xmlns="http://www.w3.org/2000/svg">
<ellipse cx="24" cy="25.5" rx="21" ry="22.3125" fill="#8892BF"/>
<path d="M21.6588 15.9375H24.1788L23.4666 19.9605H25.7311C26.9728 19.9887 27.898 20.2836 28.5068 20.8451C29.1277 21.4066 29.3103 22.4741 29.0546 24.0466L27.8311 31.0605H25.2745L26.4433 24.3626C26.5649 23.6604 26.5284 23.162 26.3337 22.8671C26.139 22.5722 25.719 22.4248 25.0736 22.4248L23.0466 22.4037L21.5492 31.0605H19.0291L21.6588 15.9375Z" fill="white"/>
<path fill-rule="evenodd" clip-rule="evenodd" d="M10.1114 19.9605H15.0054C16.4419 19.9745 17.4828 20.4521 18.1281 21.3928C18.7735 22.3335 18.9864 23.6183 18.7673 25.2473C18.6822 25.9916 18.4934 26.7217 18.2012 27.4378C17.921 28.1539 17.5317 28.7997 17.0324 29.3756C16.4236 30.1056 15.7724 30.569 15.0785 30.7657C14.3845 30.9624 13.6661 31.0606 12.9236 31.0606H10.7323L10.0383 35.0625H7.5L10.1114 19.9605ZM11.1523 28.6805L12.2443 22.3828H12.6132C12.7472 22.3828 12.8871 22.3756 13.0332 22.3617C14.0073 22.3478 14.8166 22.4531 15.462 22.6776C16.1194 22.9022 16.3385 23.7518 16.1194 25.2262C15.8517 26.9816 15.3279 28.0065 14.5489 28.3014C13.7699 28.5823 12.7958 28.7155 11.6271 28.7016H11.3714C11.2984 28.7016 11.2253 28.6944 11.1523 28.6805Z" fill="white"/>
<path fill-rule="evenodd" clip-rule="evenodd" d="M36.6548 19.9605H31.7608L29.1494 35.0625H31.6877L32.3817 31.0606H34.573C35.3155 31.0606 36.0339 30.9624 36.7279 30.7657C37.4218 30.569 38.073 30.1056 38.6818 29.3756C39.1811 28.7997 39.5704 28.1539 39.8505 27.4378C40.1427 26.7217 40.3315 25.9916 40.4167 25.2473C40.6358 23.6183 40.4229 22.3335 39.7775 21.3928C39.1322 20.4521 38.0913 19.9745 36.6548 19.9605ZM33.8937 22.3828L32.8017 28.6805C32.8747 28.6944 32.9478 28.7016 33.0208 28.7016H33.2765C34.4452 28.7155 35.4192 28.5823 36.1983 28.3014C36.9773 28.0065 37.501 26.9816 37.7688 25.2262C37.9879 23.7518 37.7688 22.9022 37.1113 22.6776C36.466 22.4531 35.6566 22.3478 34.6826 22.3617C34.5365 22.3756 34.3966 22.3828 34.2626 22.3828H33.8937Z" fill="white"/>
</svg>
