<svg width="36" height="36" viewBox="0 0 36 36" fill="none" xmlns="http://www.w3.org/2000/svg">
<rect width="36" height="36" fill="#E4EBFA" fill-opacity="0.32"/>
<path d="M20.6992 28.3504H14.3992L13.6492 26.3254H2.32422V7.05039C2.32422 6.15039 3.07422 5.40039 3.97422 5.40039H32.0242C32.9242 5.40039 33.6742 6.15039 33.6742 7.05039V26.4004H22.1992L20.6992 28.3504ZM15.2242 27.2254H20.1742L21.6742 25.2004H32.5492V7.05039C32.5492 6.75039 32.3242 6.52539 32.0242 6.52539H3.97422C3.67422 6.52539 3.44922 6.75039 3.44922 7.05039V25.2754H14.4742L15.2242 27.2254Z" fill="#3B82F6"/>
<path d="M30.5984 30.6H5.39844C2.69844 30.6 0.523438 28.425 0.523438 25.725V25.125H14.3984L15.1484 27.15H20.0984L21.5984 25.125H35.3984V25.725C35.4734 28.425 33.2234 30.6 30.5984 30.6ZM1.72344 26.325C2.02344 28.125 3.52344 29.475 5.39844 29.475H30.5234C32.3984 29.475 33.9734 28.125 34.1984 26.325H22.1984L20.6984 28.35H14.3984L13.6484 26.325H1.72344Z" fill="#3B82F6"/>
<path d="M12.525 9.375H6.75V14.4H12.525V9.375Z" fill="#3B82F6"/>
<path d="M13.0484 14.9254H6.14844V8.77539H13.0484V14.9254ZM7.27344 13.8004H11.9234V9.90039H7.27344V13.8004Z" fill="#3B82F6"/>
<path d="M12.525 17.3252H6.75V22.3502H12.525V17.3252Z" fill="#3B82F6"/>
<path d="M13.0484 22.9498H6.14844V16.7998H13.0484V22.9498ZM7.27344 21.8248H11.9234V17.9248H7.27344V21.8248Z" fill="#3B82F6"/>
<path d="M29.55 11.25H16.125V12.375H29.55V11.25Z" fill="#3B82F6"/>
<path d="M29.55 19.2754H16.125V20.4004H29.55V19.2754Z" fill="#3B82F6"/>
</svg>
