<svg width="32" height="28" viewBox="0 0 32 28" fill="none" xmlns="http://www.w3.org/2000/svg">
<g clip-path="url(#clip0_2574_2845)">
<path d="M1.30762 25.3018H30.0674C30.7768 25.3018 31.3477 25.8726 31.3477 26.582C31.3474 27.2912 30.7767 27.8613 30.0674 27.8613H1.30762C0.598346 27.8613 0.0275769 27.2912 0.0273438 26.582C0.0273438 25.8726 0.598201 25.3018 1.30762 25.3018ZM24.4023 10.4854C27.2742 10.4854 29.6045 12.8156 29.6045 15.6875V17.4307C29.6045 18.7115 28.9072 19.8303 27.875 20.4248L27.8613 20.4326V22.6328H21.8154V21.1816C22.8992 19.9523 23.5586 18.3317 23.5586 16.5586V14.8164C23.5586 13.3682 23.1653 12.0166 22.4863 10.8477C23.0796 10.6114 23.7252 10.4854 24.4023 10.4854ZM6.97266 1.77051C7.36939 1.77056 7.76235 1.84822 8.12891 2C8.49569 2.15193 8.82963 2.37455 9.11035 2.65527C9.39107 2.936 9.6137 3.26994 9.76562 3.63672C9.91741 4.00327 9.99506 4.39623 9.99512 4.79297C9.99512 5.18989 9.91749 5.58348 9.76562 5.9502C9.61378 6.31679 9.39087 6.65003 9.11035 6.93066C8.82963 7.21139 8.49569 7.43401 8.12891 7.58594C7.76226 7.7378 7.3695 7.81635 6.97266 7.81641C6.57566 7.81641 6.18221 7.73786 5.81543 7.58594C5.44868 7.43401 5.11566 7.21137 4.83496 6.93066C4.55426 6.64996 4.33161 6.31695 4.17969 5.9502C4.02776 5.58341 3.94922 5.18997 3.94922 4.79297C3.94928 4.39612 4.02782 4.00336 4.17969 3.63672C4.33161 3.26994 4.55424 2.936 4.83496 2.65527C5.11559 2.37476 5.44884 2.15185 5.81543 2C6.18214 1.84814 6.57574 1.77051 6.97266 1.77051ZM24.4023 1.77051C24.7993 1.77051 25.1929 1.84814 25.5596 2C25.9262 2.15185 26.2594 2.37476 26.54 2.65527C26.8208 2.936 27.0434 3.26994 27.1953 3.63672C27.3472 4.00336 27.4257 4.39612 27.4258 4.79297C27.4258 5.18997 27.3472 5.58341 27.1953 5.9502C27.0434 6.31695 26.8207 6.64996 26.54 6.93066C26.2593 7.21137 25.9263 7.43401 25.5596 7.58594C25.1928 7.73786 24.7993 7.81641 24.4023 7.81641C24.0055 7.81635 23.6127 7.7378 23.2461 7.58594C22.8793 7.43401 22.5454 7.21139 22.2646 6.93066C21.9841 6.65003 21.7612 6.31679 21.6094 5.9502C21.4575 5.58348 21.3799 5.18989 21.3799 4.79297C21.3799 4.39623 21.4576 4.00327 21.6094 3.63672C21.7613 3.26994 21.9839 2.936 22.2646 2.65527C22.5454 2.37455 22.8793 2.15193 23.2461 2C23.6126 1.84822 24.0056 1.77056 24.4023 1.77051ZM15.6875 0.0273438C16.6047 0.0273438 17.4842 0.391611 18.1328 1.04004C18.7815 1.6887 19.1465 2.56898 19.1465 3.48633C19.1464 4.4036 18.7814 5.28303 18.1328 5.93164C17.4842 6.58024 16.6048 6.94531 15.6875 6.94531C14.7702 6.94531 13.8908 6.58024 13.2422 5.93164C12.5936 5.28303 12.2286 4.4036 12.2285 3.48633C12.2285 2.56898 12.5935 1.6887 13.2422 1.04004C13.8908 0.391612 14.7703 0.0273438 15.6875 0.0273438ZM3.51367 20.4326L3.5 20.4248C2.46776 19.8303 1.77055 18.7115 1.77051 17.4307V15.6875C1.77051 12.8156 4.10076 10.4854 6.97266 10.4854C7.64924 10.4854 8.29446 10.6166 8.8877 10.8477C8.20889 12.0113 7.81641 13.3685 7.81641 14.8164V16.5586C7.81641 18.3317 8.47584 19.9469 9.55957 21.1816V22.6328H3.51367V20.4326ZM12.2285 20.2432L12.2168 20.2354C11.1729 19.5376 10.4855 18.3473 10.4854 16.9951V14.8164C10.4854 11.9445 12.8156 9.61426 15.6875 9.61426C18.5594 9.61426 20.8896 11.9445 20.8896 14.8164V16.9951C20.8895 18.3473 20.2021 19.5376 19.1582 20.2354L19.1465 20.2432V22.6328H12.2285V20.2432Z" fill="#3B82F6" stroke="#3B82F6" stroke-width="0.0544705"/>
</g>
<defs>
<clipPath id="clip0_2574_2845">
<rect width="31.375" height="27.8889" fill="white"/>
</clipPath>
</defs>
</svg>
