<svg width="32" height="32" viewBox="0 0 32 32" fill="none" xmlns="http://www.w3.org/2000/svg">
<g clip-path="url(#clip0_2574_2829)">
<path d="M15.9996 0H15.9609C7.12494 0 -0.0390625 7.164 -0.0390625 16C-0.0390625 24.836 7.12494 32 15.9609 32H15.9996C24.8356 32 31.9996 24.836 31.9996 16C31.9996 7.164 24.8356 0 15.9996 0ZM15.9996 30.72H15.9609C7.8316 30.72 1.24094 24.1293 1.24094 16C1.24094 7.87067 7.8316 1.28 15.9609 1.28H15.9996C24.1289 1.28 30.7196 7.87067 30.7196 16C30.7196 24.1293 24.1289 30.72 15.9996 30.72Z" fill="#3B82F6"/>
<path d="M21.1012 9.52267C19.7812 9.85601 18.2532 10.072 16.6825 10.1227L16.6478 10.124V15.3627H21.8478C21.8162 13.3322 21.5527 11.312 21.0625 9.34134L21.1012 9.52267ZM16.6398 2.65334V8.95334C18.0827 8.91104 19.5169 8.71572 20.9185 8.37067L20.7785 8.40001C19.7705 5.21334 18.2012 3.12267 16.6398 2.65334ZM11.1865 8.39201C12.4212 8.70134 13.8532 8.90401 15.3225 8.95201L15.3558 8.95334V2.63867C13.7945 3.09201 12.2012 5.18534 11.1865 8.39201ZM25.5852 6.56801C23.844 4.78848 21.641 3.52978 19.2238 2.93334L19.1318 2.91467C20.4172 4.38261 21.3576 6.11979 21.8838 7.99867L21.9052 8.09067C23.2181 7.69649 24.487 7.16839 25.6918 6.51467L25.5852 6.56801ZM23.0238 15.3627H29.4318C29.302 12.4615 28.2285 9.68197 26.3745 7.44667L26.3918 7.46934C25.2052 8.13867 23.8278 8.73334 22.3852 9.18267L22.2318 9.22401C22.7025 11.0573 22.9892 13.168 23.0225 15.3413L23.0238 15.3627ZM10.1158 15.3627H15.3612V10.124C13.7954 10.0796 12.2392 9.865 10.7198 9.484L10.8692 9.51601C10.3929 11.4224 10.1401 13.3778 10.1158 15.3427V15.3627ZM21.8478 16.6387H16.6398V21.8653C18.2452 21.912 19.7772 22.128 21.2492 22.4973L21.1025 22.4667C21.5452 20.7267 21.8145 18.7227 21.8478 16.6613V16.6387ZM10.8705 22.4773C12.2038 22.1373 13.7452 21.9173 15.3305 21.8707L15.3625 21.8693V16.6427H10.1158C10.1465 18.728 10.4198 20.7347 10.9078 22.656L10.8705 22.4773ZM15.3638 29.3547V23.0387C13.8572 23.088 12.4238 23.2893 11.0438 23.6293L11.1865 23.6C12.2025 26.808 13.7945 28.9053 15.3638 29.3547ZM19.1318 29.0853C21.5848 28.4928 23.8227 27.2249 25.5918 25.4253L25.5945 25.4227C24.4684 24.813 23.2849 24.3159 22.0612 23.9387L21.9172 23.9C21.3893 25.8223 20.433 27.6001 19.1198 29.1L19.1318 29.0853ZM12.8238 2.93067C10.3914 3.52615 8.17327 4.78807 6.4185 6.57467L6.41583 6.57734C7.44917 7.14267 8.65317 7.65467 9.91183 8.04667L10.0545 8.08534C10.5821 6.17578 11.5327 4.40946 12.8358 2.91734L12.8225 2.93201L12.8238 2.93067ZM22.2318 22.7773C23.8305 23.264 25.2118 23.86 26.5092 24.5867L26.4012 24.5307C28.2406 22.3092 29.3067 19.5492 29.4385 16.668L29.4398 16.6373H23.0318C22.994 18.7736 22.7117 20.8986 22.1905 22.9707L22.2318 22.7773ZM16.6398 23.0387V29.3453C18.2012 28.876 19.7705 26.7853 20.7785 23.592C19.4324 23.2639 18.0555 23.0784 16.6705 23.0387H16.6398ZM9.73983 9.21467C8.26582 8.77085 6.84489 8.16679 5.5025 7.41334L5.60783 7.46801C3.76843 9.68953 2.70226 12.4495 2.5705 15.3307L2.56917 15.3613H8.94517C8.97583 13.1653 9.26383 11.0507 9.77983 9.02667L9.73983 9.21467ZM8.9385 16.6387H2.5625C2.70517 19.66 3.82917 22.3933 5.61983 24.5547L5.6025 24.532C6.77983 23.8667 8.14917 23.2747 9.58117 22.8267L9.73317 22.7853C9.23616 20.7818 8.96999 18.728 8.93983 16.664L8.9385 16.6387ZM6.40917 25.4227C8.14156 27.192 10.3299 28.4472 12.7318 29.0493L12.8238 29.0693C11.5408 27.6055 10.601 25.8736 10.0732 24L10.0505 23.9067C8.75123 24.3056 7.49448 24.8317 6.2985 25.4773L6.40917 25.4227Z" fill="#3B82F6"/>
</g>
<defs>
<clipPath id="clip0_2574_2829">
<rect width="32" height="32" fill="white"/>
</clipPath>
</defs>
</svg>
