<svg width="45" height="45" viewBox="0 0 45 45" fill="none" xmlns="http://www.w3.org/2000/svg">
<rect width="44.25" height="44.25" rx="22.125" fill="white"/>
<path d="M15.2929 27.5429C14.9024 27.9334 14.9024 28.5666 15.2929 28.9571C15.6834 29.3476 16.3166 29.3476 16.7071 28.9571L16 28.25L15.2929 27.5429ZM29.25 16C29.25 15.4477 28.8023 15 28.25 15L19.25 15C18.6977 15 18.25 15.4477 18.25 16C18.25 16.5523 18.6977 17 19.25 17L27.25 17L27.25 25C27.25 25.5523 27.6977 26 28.25 26C28.8023 26 29.25 25.5523 29.25 25L29.25 16ZM16 28.25L16.7071 28.9571L28.9571 16.7071L28.25 16L27.5429 15.2929L15.2929 27.5429L16 28.25Z" fill="#FBBF24"/>
</svg>
