<svg width="20" height="14" viewBox="0 0 20 14" fill="none" xmlns="http://www.w3.org/2000/svg">
<path d="M20 12.4965C20 12.6799 19.9496 12.8598 19.8542 13.0165C19.7588 13.1731 19.6222 13.3005 19.4593 13.3848C19.2964 13.469 19.1135 13.5068 18.9305 13.4941C18.7476 13.4813 18.5717 13.4185 18.422 13.3125L11.422 8.34953C11.292 8.25759 11.1858 8.13592 11.1123 7.99465C11.0388 7.85338 11 7.69659 10.9994 7.53734C10.9987 7.37808 11.036 7.22097 11.1083 7.07907C11.1806 6.93717 11.2858 6.81459 11.415 6.72153L18.415 1.68454C18.5643 1.57682 18.7405 1.51243 18.9241 1.49845C19.1077 1.48448 19.2916 1.52147 19.4555 1.60534C19.6194 1.68921 19.757 1.81671 19.8531 1.97378C19.9492 2.13086 20 2.31141 20 2.49553V12.4965ZM8 12.9985C8 13.1311 8.05268 13.2583 8.14645 13.3521C8.24021 13.4459 8.36739 13.4985 8.5 13.4985C8.63261 13.4985 8.75979 13.4459 8.85355 13.3521C8.94732 13.2583 9 13.1311 9 12.9985V1.99854C9 1.86593 8.94732 1.73875 8.85355 1.64498C8.75979 1.55121 8.63261 1.49854 8.5 1.49854C8.36739 1.49854 8.24021 1.55121 8.14645 1.64498C8.05268 1.73875 8 1.86593 8 1.99854V12.9985Z" fill="white"/>
<path d="M17 12.4965C17 12.6799 16.9496 12.8598 16.8542 13.0165C16.7588 13.1731 16.6222 13.3005 16.4593 13.3848C16.2964 13.469 16.1135 13.5068 15.9305 13.4941C15.7476 13.4813 15.5717 13.4185 15.422 13.3125L8.422 8.34953C8.29197 8.25759 8.18578 8.13592 8.11227 7.99465C8.03875 7.85338 8.00004 7.69659 7.99936 7.53734C7.99867 7.37808 8.03603 7.22097 8.10833 7.07907C8.18062 6.93717 8.28576 6.81459 8.415 6.72153L15.415 1.68454C15.5643 1.57682 15.7405 1.51243 15.9241 1.49845C16.1077 1.48448 16.2916 1.52147 16.4555 1.60534C16.6194 1.68921 16.757 1.81671 16.8531 1.97378C16.9492 2.13086 17 2.31141 17 2.49553V12.4965ZM5 12.9985C5 13.1311 5.05268 13.2583 5.14645 13.3521C5.24021 13.4459 5.36739 13.4985 5.5 13.4985C5.63261 13.4985 5.75979 13.4459 5.85355 13.3521C5.94732 13.2583 6 13.1311 6 12.9985V1.99854C6 1.86593 5.94732 1.73875 5.85355 1.64498C5.75979 1.55121 5.63261 1.49854 5.5 1.49854C5.36739 1.49854 5.24021 1.55121 5.14645 1.64498C5.05268 1.73875 5 1.86593 5 1.99854V12.9985Z" fill="white" fill-opacity="0.32"/>
</svg>
