<svg width="35" height="28" viewBox="0 0 35 28" fill="none" xmlns="http://www.w3.org/2000/svg">
<path d="M0.867188 13.8974L2.9006 17.2864C3.19133 17.771 3.86002 17.8533 4.25959 17.4537L12.1589 9.55447" stroke="#3B82F6" stroke-width="1.73718" stroke-linecap="round"/>
<path d="M20.8467 18.2402C23.058 18.2402 26.4225 18.7978 29.2119 19.9131C30.606 20.4705 31.8024 21.1462 32.6357 21.916C33.4627 22.68 33.8759 23.479 33.876 24.3203V26.9268H7.81738V24.3203C7.81745 23.4789 8.23065 22.68 9.05762 21.916C9.89097 21.1462 11.0873 20.4705 12.4814 19.9131C15.2709 18.7978 18.6354 18.2402 20.8467 18.2402ZM20.8467 0.868164C22.4591 0.868171 24.0053 1.50932 25.1455 2.64941C26.2856 3.78955 26.9266 5.33586 26.9268 6.94824C26.9268 8.56079 26.2858 10.1078 25.1455 11.248C24.0053 12.3881 22.4591 13.0293 20.8467 13.0293C19.2341 13.0293 17.6871 12.3883 16.5469 11.248C15.4068 10.1078 14.7666 8.56069 14.7666 6.94824C14.7667 5.33598 15.4069 3.78952 16.5469 2.64941C17.6871 1.50917 19.2341 0.868164 20.8467 0.868164Z" fill="#3B82F6" stroke="#3B82F6" stroke-width="1.73718"/>
</svg>
