<svg width="32" height="32" viewBox="0 0 32 32" fill="none" xmlns="http://www.w3.org/2000/svg">
<path d="M5.33203 6.66667C5.33203 5.95942 5.61298 5.28115 6.11308 4.78105C6.61318 4.28095 7.29145 4 7.9987 4H19.9987C20.7059 4 21.3842 4.28095 21.8843 4.78105C22.3844 5.28115 22.6654 5.95942 22.6654 6.66667V25.3333C22.6654 25.687 22.5249 26.0261 22.2748 26.2761C22.0248 26.5262 21.6857 26.6667 21.332 26.6667H7.9987C7.29145 26.6667 6.61318 26.3857 6.11308 25.8856C5.61298 25.3855 5.33203 24.7072 5.33203 24V6.66667Z" fill="#3B82F6" stroke="#3B82F6" stroke-width="1.6" stroke-linecap="round" stroke-linejoin="round"/>
<path d="M10.668 11.3142C10.668 11.0169 10.9809 10.8235 11.2469 10.9564L17.9524 14.3092C18.2472 14.4566 18.2472 14.8774 17.9524 15.0248L11.2469 18.3775C10.9809 18.5105 10.668 18.3171 10.668 18.0198V11.3142Z" fill="white"/>
<path d="M22.6654 9.33301H25.332C25.6857 9.33301 26.0248 9.47348 26.2748 9.72353C26.5249 9.97358 26.6654 10.3127 26.6654 10.6663V25.9997C26.6654 26.5301 26.4547 27.0388 26.0796 27.4139C25.7045 27.789 25.1958 27.9997 24.6654 27.9997H17.332" stroke="#3B82F6" stroke-width="1.6" stroke-linecap="round" stroke-linejoin="round"/>
</svg>
