<svg width="20" height="14" viewBox="0 0 20 14" fill="none" xmlns="http://www.w3.org/2000/svg">
<path d="M0 1.002C6.74228e-06 0.818604 0.0504473 0.63874 0.145805 0.482084C0.241162 0.325428 0.377764 0.198011 0.540669 0.113772C0.703574 0.0295319 0.886507 -0.0082869 1.06946 0.00445199C1.25241 0.0171909 1.42834 0.0799969 1.578 0.186L8.578 5.149C8.70803 5.24095 8.81422 5.36262 8.88773 5.50389C8.96125 5.64516 8.99996 5.80195 9.00064 5.9612C9.00133 6.12045 8.96397 6.27756 8.89167 6.41946C8.81938 6.56136 8.71424 6.68394 8.585 6.777L1.585 11.814C1.43567 11.9217 1.25949 11.9861 1.0759 12.0001C0.8923 12.0141 0.708409 11.9771 0.544493 11.8932C0.380577 11.8093 0.242999 11.6818 0.146924 11.5248C0.0508487 11.3677 6.12982e-06 11.1871 0 11.003V1.002ZM12 0.5C12 0.367392 11.9473 0.240215 11.8536 0.146447C11.7598 0.0526785 11.6326 0 11.5 0C11.3674 0 11.2402 0.0526785 11.1464 0.146447C11.0527 0.240215 11 0.367392 11 0.5V11.5C11 11.6326 11.0527 11.7598 11.1464 11.8536C11.2402 11.9473 11.3674 12 11.5 12C11.6326 12 11.7598 11.9473 11.8536 11.8536C11.9473 11.7598 12 11.6326 12 11.5V0.5Z" fill="white"/>
<path d="M3 1.002C3.00001 0.818604 3.05045 0.63874 3.1458 0.482084C3.24116 0.325428 3.37776 0.198011 3.54067 0.113772C3.70357 0.0295319 3.88651 -0.0082869 4.06946 0.00445199C4.25241 0.0171909 4.42834 0.0799969 4.578 0.186L11.578 5.149C11.708 5.24095 11.8142 5.36262 11.8877 5.50389C11.9612 5.64516 12 5.80195 12.0006 5.9612C12.0013 6.12045 11.964 6.27756 11.8917 6.41946C11.8194 6.56136 11.7142 6.68394 11.585 6.777L4.585 11.814C4.43567 11.9217 4.25949 11.9861 4.0759 12.0001C3.8923 12.0141 3.70841 11.9771 3.54449 11.8932C3.38058 11.8093 3.243 11.6818 3.14692 11.5248C3.05085 11.3677 3.00001 11.1871 3 11.003V1.002ZM15 0.5C15 0.367392 14.9473 0.240215 14.8536 0.146447C14.7598 0.0526785 14.6326 0 14.5 0C14.3674 0 14.2402 0.0526785 14.1464 0.146447C14.0527 0.240215 14 0.367392 14 0.5V11.5C14 11.6326 14.0527 11.7598 14.1464 11.8536C14.2402 11.9473 14.3674 12 14.5 12C14.6326 12 14.7598 11.9473 14.8536 11.8536C14.9473 11.7598 15 11.6326 15 11.5V0.5Z" fill="white" fill-opacity="0.32"/>
</svg>
