<svg width="40" height="49" viewBox="0 0 40 49" fill="none" xmlns="http://www.w3.org/2000/svg">
<path d="M20.0019 21.4931C22.0201 21.4931 23.6561 19.8571 23.6561 17.8389C23.6561 15.8207 22.0201 14.1847 20.0019 14.1847C17.9837 14.1847 16.3477 15.8207 16.3477 17.8389C16.3477 19.8571 17.9837 21.4931 20.0019 21.4931Z" fill="#61DAFB"/>
<path d="M20 31.277C22.8684 34.0668 25.6974 35.7171 27.9764 35.7171C28.723 35.7171 29.4303 35.5599 30.0196 35.2063C32.0629 34.0275 32.8094 31.0806 32.1022 26.8762C31.9843 26.1297 31.8271 25.3831 31.6306 24.5972C32.4165 24.3615 33.1238 24.1257 33.831 23.89C37.7996 22.3576 40 20.2358 40 17.9175C40 15.5599 37.7996 13.4381 33.831 11.945C33.1238 11.6699 32.4165 11.4342 31.6306 11.2377C31.8271 10.4519 31.9843 9.7053 32.1022 8.95874C32.7701 4.67584 32.0236 1.68959 29.9804 0.510806C29.391 0.157171 28.6837 0 27.9371 0C25.6974 0 22.8291 1.65029 19.9607 4.44008C17.1316 1.65029 14.3026 0 12.0236 0C11.277 0 10.5697 0.157171 9.98035 0.510806C7.93713 1.68959 7.19057 4.63654 7.89784 8.84087C8.01572 9.58743 8.17289 10.334 8.36935 11.1198C7.5835 11.3556 6.87623 11.5914 6.16896 11.8271C2.20039 13.3595 0 15.4813 0 17.7996C0 20.1572 2.20039 22.279 6.16896 23.7721C6.87623 24.0472 7.5835 24.2829 8.36935 24.4794C8.17289 25.2652 8.01572 26.0118 7.89784 26.7584C7.22986 30.9627 7.97642 33.9489 9.98035 35.0884C10.5697 35.442 11.277 35.5992 12.0236 35.5992C14.3026 35.6778 17.1316 34.0275 20 31.277ZM17.7996 25.9725C18.5069 26.0118 19.2534 26.0118 20 26.0118C20.7466 26.0118 21.4931 26.0118 22.2004 25.9725C21.4931 26.9155 20.7466 27.78 20 28.6051C19.2534 27.78 18.5069 26.9155 17.7996 25.9725ZM12.9273 21.9253C13.3202 22.5933 13.6739 23.222 14.1061 23.8507C12.888 23.6935 11.7485 23.4971 10.6483 23.2613C11.002 22.2004 11.3949 21.1002 11.8664 20C12.1807 20.6287 12.5344 21.2967 12.9273 21.9253ZM10.6483 12.4558C11.7485 12.22 12.888 12.0236 14.1061 11.8664C13.7132 12.4951 13.3202 13.1238 12.9273 13.7917C12.5344 14.4597 12.1807 15.0884 11.8664 15.7564C11.3556 14.6169 10.9627 13.5167 10.6483 12.4558ZM12.8094 17.8389C13.3202 16.778 13.8703 15.7171 14.499 14.6562C15.0884 13.6346 15.7564 12.613 16.4244 11.5914C17.6031 11.5128 18.7819 11.4735 20 11.4735C21.2574 11.4735 22.4361 11.5128 23.5756 11.5914C24.2829 12.613 24.9116 13.6346 25.501 14.6562C26.1297 15.7171 26.6798 16.778 27.1906 17.8389C26.6798 18.8998 26.1297 19.9607 25.501 21.0216C24.9116 22.0432 24.2436 23.0648 23.5756 24.0864C22.3969 24.165 21.2181 24.2043 20 24.2043C18.7426 24.2043 17.5639 24.165 16.4244 24.0864C15.7171 23.0648 15.0884 22.0432 14.499 21.0216C13.8703 19.9607 13.3202 18.8998 12.8094 17.8389ZM28.1729 15.7171L27.112 13.7525C26.7191 13.0845 26.3654 12.4558 25.9332 11.8271C27.1513 11.9843 28.2908 12.1807 29.391 12.4165C29.0373 13.5167 28.6444 14.6169 28.1729 15.7171ZM28.1729 19.9607C28.6444 21.0609 29.0373 22.1611 29.391 23.222C28.2908 23.4578 27.1513 23.6542 25.9332 23.8114C26.3261 23.1827 26.7191 22.554 27.112 21.8861C27.4656 21.2967 27.8193 20.6287 28.1729 19.9607ZM29.0766 33.5953C28.7623 33.7917 28.3694 33.8703 27.9371 33.8703C26.0118 33.8703 23.6149 32.2986 21.2574 29.9411C22.3969 28.723 23.4971 27.3477 24.5972 25.8153C26.444 25.6582 28.2122 25.3831 29.8625 24.9902C30.0589 25.6974 30.1768 26.4047 30.2947 27.112C30.8448 30.4519 30.4126 32.8487 29.0766 33.5953ZM31.1198 12.888C35.5206 14.1454 38.1532 16.0707 38.1532 17.8389C38.1532 19.3713 36.3458 20.9037 33.1631 22.1218C32.5344 22.3576 31.8271 22.5933 31.1198 22.7898C30.609 21.1788 29.9804 19.5285 29.1945 17.8389C29.9804 16.1493 30.6483 14.499 31.1198 12.888ZM27.9764 1.80747C28.4086 1.80747 28.7623 1.88605 29.1159 2.08251C30.4126 2.82908 30.8841 5.18664 30.334 8.56581C30.2161 9.23379 30.0589 9.94106 29.9018 10.6876C28.2515 10.334 26.4833 10.0589 24.6365 9.86248C23.5756 8.33006 22.4361 6.95481 21.2967 5.73674C23.6542 3.41847 26.0511 1.80747 27.9764 1.80747ZM22.2004 9.7053C21.4931 9.66601 20.7466 9.66601 20 9.66601C19.2534 9.66601 18.5069 9.66601 17.7996 9.7053C18.5069 8.76228 19.2534 7.89784 20 7.07269C20.7466 7.89784 21.4931 8.80157 22.2004 9.7053ZM10.9234 2.08251C11.2377 1.88605 11.6306 1.80747 12.0629 1.80747C13.9882 1.80747 16.3851 3.37918 18.7426 5.73674C17.6031 6.95481 16.5029 8.33006 15.4027 9.86248C13.556 10.0196 11.7878 10.2947 10.1375 10.6876C9.94106 9.98035 9.82318 9.27308 9.7053 8.56581C9.15521 5.22593 9.58743 2.86837 10.9234 2.08251ZM8.88016 22.7898C4.47937 21.5324 1.84676 19.6071 1.84676 17.8389C1.84676 16.3065 3.65422 14.7741 6.83693 13.556C7.46562 13.3202 8.17289 13.0845 8.88016 12.888C9.39096 14.499 10.0196 16.1493 10.8055 17.8389C10.0196 19.5285 9.35167 21.2181 8.88016 22.7898ZM9.7053 27.112C9.82318 26.444 9.98035 25.7367 10.1375 24.9902C11.7878 25.3438 13.556 25.6189 15.4027 25.8153C16.4637 27.3477 17.6031 28.723 18.7426 29.9411C16.3851 32.2593 13.9882 33.8703 12.0629 33.8703C11.6306 33.8703 11.277 33.7917 10.9234 33.5953C9.58743 32.8487 9.15521 30.4519 9.7053 27.112ZM8.05501 43.3006C8.91945 42.2397 8.95874 41.0609 8.48723 39.8821C8.01572 38.7033 7.0334 38.1532 5.81532 38.1139C4.36149 38.0747 2.86837 38.1139 1.41454 38.1139H1.13949V48.2908H2.31827V44.4401H4.16503C4.40079 44.4401 4.59725 44.5187 4.71513 44.7151L7.07269 48.3694C7.11198 48.4479 7.22986 48.5658 7.30845 48.5658H8.84086C7.89784 47.112 6.99411 45.7367 6.05108 44.3222C6.87623 44.2043 7.5835 43.9293 8.05501 43.3006ZM2.31827 43.222V39.332H2.75049C3.65422 39.332 4.59725 39.2927 5.50098 39.3713C6.56189 39.4106 7.30845 40.2358 7.30845 41.2967C7.30845 42.3576 6.44401 43.1827 5.3831 43.222C4.44008 43.2613 3.49705 43.222 2.31827 43.222ZM17.5246 43.7328C16.8959 40.9823 14.3811 40.2751 12.4558 41.1395C10.9627 41.8075 10.2947 43.1041 10.2554 44.7151C10.2161 45.9332 10.5697 47.0334 11.5128 47.8585C12.5737 48.8016 13.8703 48.9195 15.2063 48.6837C15.9528 48.5265 16.6208 48.1729 17.1316 47.6228C16.9352 47.3477 16.7387 47.0727 16.5422 46.8369C15.442 47.78 14.224 48.0943 12.888 47.4656C12.0236 47.0334 11.5914 45.9725 11.5128 45.1866H17.6031V44.6758C17.6424 44.3222 17.6031 44.0079 17.5246 43.7328ZM11.5914 44.3615C11.4735 43.1827 12.6523 41.9253 13.9489 41.9253C15.442 41.8861 16.3851 42.7898 16.4244 44.3615H11.5914ZM23.6542 40.943C23.0648 40.8251 22.4361 40.7859 21.8468 40.8251C20.9037 40.9037 20.0786 41.336 19.4106 42.0432C19.6071 42.3183 19.7642 42.5933 20 42.9077C20.0786 42.8291 20.1572 42.7505 20.2358 42.7112C20.8644 42.1218 21.611 41.8075 22.5147 41.8861C23.222 41.9253 23.89 42.1611 24.0864 42.8684C24.2436 43.4185 24.2043 44.0079 24.2436 44.5973C24.1257 44.5973 24.0864 44.558 24.0472 44.5187C23.1041 43.7328 22.0432 43.5756 20.9037 43.8507C19.8428 44.1257 19.1749 44.9509 19.0963 46.0118C19.0177 47.2299 19.5678 48.1336 20.6287 48.5658C21.2967 48.8409 22.0432 48.8409 22.7505 48.6837C23.3006 48.5658 23.5363 48.2515 24.3222 47.8193V48.3301H25.4224C25.4224 46.7584 25.4617 44.833 25.4224 43.0255C25.4224 41.8861 24.7544 41.1788 23.6542 40.943ZM24.2043 45.8939C24.165 46.0118 24.2043 46.1297 24.2043 46.2475C24.2043 47.0727 24.0079 47.3477 23.222 47.6621C22.6719 47.8585 22.0825 47.9371 21.4931 47.7407C20.8251 47.5442 20.3536 46.9548 20.3536 46.2868C20.3143 45.6189 20.7466 44.9509 21.4145 44.7544C22.3183 44.4401 23.1434 44.6365 23.89 45.1866C24.1257 45.3831 24.2829 45.5796 24.2043 45.8939ZM30.334 42.0039C31.3556 41.6896 32.2986 41.8861 33.0059 42.7505L33.1238 42.8291C33.3988 42.5933 33.6346 42.3576 33.9489 42.0825C33.831 41.9646 33.7917 41.8861 33.7132 41.7682C32.5737 40.5501 30.334 40.3929 28.9587 41.3752C27.0334 42.7898 27.0727 45.5403 28.0157 46.9941C28.9194 48.3694 30.2161 48.8409 31.7485 48.6444C32.6523 48.5265 33.3988 48.0943 33.9882 47.3477C33.7132 47.112 33.4381 46.8762 33.1631 46.6012C33.0845 46.6798 33.0452 46.7191 33.0059 46.7976C31.945 47.9764 30.1768 47.8585 29.2338 46.6012C28.6837 45.8546 28.5658 44.9902 28.723 44.1257C28.8016 43.1434 29.3124 42.3576 30.334 42.0039ZM38.5069 47.3477C38.4283 47.387 38.389 47.4263 38.389 47.4263C38.0747 47.6621 37.7603 47.7014 37.4067 47.5835C37.053 47.4263 37.0137 47.112 36.9745 46.7976V42.3183C36.9745 42.2397 36.9745 42.3969 37.0138 42.0039H38.5069V40.8251H36.9352V38.8605H35.7564V40.9823H34.7348C34.6562 40.9823 34.5383 41.0609 34.5383 41.1395C34.499 41.4145 34.5383 41.611 34.5383 42.0039H35.7957V47.0334C35.7957 47.6621 35.9528 48.2122 36.5029 48.5265C37.0923 48.8802 38.2318 48.8016 38.7426 48.3694C38.8212 48.3301 38.8605 48.1729 38.8605 48.1336C38.7426 47.8978 38.6248 47.6228 38.5069 47.3477Z" fill="#61DAFB"/>
</svg>
