<svg width="32" height="32" viewBox="0 0 32 32" fill="none" xmlns="http://www.w3.org/2000/svg">
<path d="M18.6673 3.19956C20.3344 4.09133 21.5435 5.21856 22.4007 6.93289C22.9553 12.2257 22.9553 12.2257 21.8423 14.4475C20.58 15.966 19.4839 16.9634 17.509 17.2121C13.34 17.3763 13.34 17.3763 11.434 15.7996C9.25957 13.4579 9.39404 11.6453 9.40899 8.53081C9.69514 6.14523 10.4897 5.29891 12.2673 3.73289C14.2538 2.73965 16.5046 2.89486 18.6673 3.19956Z" fill="#3B82F6"/>
<path d="M13.868 21.3337C15.9923 21.4464 17.8571 21.4005 19.9346 20.9004C22.7852 20.7529 24.7992 22.0221 27.2013 23.467C27.7346 24.0004 27.7346 24.0004 27.8013 25.6004C27.7346 27.2004 27.7346 27.2004 27.2013 27.7337C25.5529 27.7877 23.9166 27.8082 22.268 27.8045C21.7728 27.805 21.2776 27.8055 20.7674 27.8061C19.7183 27.8064 18.6692 27.8054 17.6201 27.8032C16.0082 27.8004 14.3965 27.8032 12.7846 27.8066C11.768 27.8063 10.7513 27.8056 9.73464 27.8045C9.00631 27.8061 9.00631 27.8061 8.26328 27.8078C4.86261 27.795 4.86261 27.795 4.26797 27.2004C3.96797 25.7337 3.96797 25.7337 4.26797 24.0004C7.33477 21.3116 9.9111 20.7499 13.868 21.3337Z" fill="#3B82F6"/>
</svg>
