<svg width="32" height="32" viewBox="0 0 32 32" fill="none" xmlns="http://www.w3.org/2000/svg">
<path d="M1.33487 10C11.0149 10 20.6949 10 30.6682 10C30.7095 13.0388 30.7507 16.0775 30.7932 19.2083C30.8205 20.6428 30.8205 20.6428 30.8484 22.1063C30.8534 22.8593 30.8584 23.6122 30.8635 24.388C30.874 25.1596 30.8845 25.9311 30.8953 26.7261C30.6682 28.6667 30.6682 28.6667 29.8116 29.7718C27.8391 31.3156 25.4052 30.9504 23.0015 30.9323C22.4468 30.9342 21.8921 30.9361 21.3205 30.9381C20.1482 30.9395 18.9759 30.9358 17.8036 30.9274C16.0081 30.9167 14.2137 30.9273 12.4182 30.9401C11.2793 30.9388 10.1404 30.9362 9.00154 30.9323C8.464 30.9363 7.92646 30.9404 7.37263 30.9446C3.6297 30.8974 3.6297 30.8974 2.19151 29.7718C0.856179 28.0491 1.11045 26.5324 1.13956 24.388C1.14455 23.635 1.14955 22.8821 1.15469 22.1063C1.1729 21.15 1.19111 20.1936 1.20987 19.2083C1.25112 16.1696 1.29237 13.1308 1.33487 10ZM7.33487 14C7.33487 14.44 7.33487 14.88 7.33487 15.3333C9.97487 15.3333 12.6149 15.3333 15.3349 15.3333C15.3349 14.8933 15.3349 14.4533 15.3349 14C12.6949 14 10.0549 14 7.33487 14ZM7.33487 19.3333C7.33487 19.7733 7.33487 20.2133 7.33487 20.6667C11.0749 20.6667 14.8149 20.6667 18.6682 20.6667C18.6682 20.2267 18.6682 19.7867 18.6682 19.3333C14.9282 19.3333 11.1882 19.3333 7.33487 19.3333ZM20.6682 19.3333C20.6682 19.7733 20.6682 20.2133 20.6682 20.6667C21.5482 20.6667 22.4282 20.6667 23.3349 20.6667C23.3349 20.2267 23.3349 19.7867 23.3349 19.3333C22.4549 19.3333 21.5749 19.3333 20.6682 19.3333ZM7.33487 23.3333C7.33487 23.7733 7.33487 24.2133 7.33487 24.6667C12.6149 24.6667 17.8949 24.6667 23.3349 24.6667C23.3349 24.2267 23.3349 23.7867 23.3349 23.3333C18.0549 23.3333 12.7749 23.3333 7.33487 23.3333Z" fill="#3B82F6"/>
<path d="M8.9987 1.0676C9.55342 1.06569 10.1082 1.06377 10.6797 1.0618C11.852 1.06044 13.0243 1.06413 14.1966 1.07248C15.9921 1.08318 17.7866 1.07258 19.582 1.05979C20.7209 1.06111 21.8598 1.06367 22.9987 1.0676C23.805 1.06153 23.805 1.06153 24.6276 1.05533C28.2721 1.10123 28.2721 1.10123 29.8229 2.01607C30.6654 3.33322 30.6654 3.33322 30.6654 8.66656C20.9854 8.66656 11.3054 8.66656 1.33203 8.66656C1.33203 3.33322 1.33203 3.33322 2.17448 2.01607C4.25756 0.787257 6.64699 1.04989 8.9987 1.0676ZM5.33203 4.66656C5.33203 5.10656 5.33203 5.54656 5.33203 5.99989C6.21203 5.99989 7.09203 5.99989 7.9987 5.99989C7.9987 5.55989 7.9987 5.11989 7.9987 4.66656C7.1187 4.66656 6.2387 4.66656 5.33203 4.66656ZM9.9987 4.66656C9.9987 5.10656 9.9987 5.54656 9.9987 5.99989C10.8787 5.99989 11.7587 5.99989 12.6654 5.99989C12.6654 5.55989 12.6654 5.11989 12.6654 4.66656C11.7854 4.66656 10.9054 4.66656 9.9987 4.66656ZM14.6654 4.66656C14.6654 5.10656 14.6654 5.54656 14.6654 5.99989C15.5454 5.99989 16.4254 5.99989 17.332 5.99989C17.332 5.55989 17.332 5.11989 17.332 4.66656C16.452 4.66656 15.572 4.66656 14.6654 4.66656Z" fill="#3B82F6"/>
</svg>
