<svg width="122" height="34" viewBox="0 0 122 34" fill="none" xmlns="http://www.w3.org/2000/svg">
<rect y="3" width="26" height="26" rx="13" fill="#3784E6"/>
<path d="M6.99081 29V13.6275H17.7996V16.9902H11.1642V19.6324H17.1391V22.9951H11.1642V29H6.99081Z" fill="white"/>
<path d="M21.0752 9.79655C21.1056 9.83114 21.1361 9.86573 21.1674 9.90136C21.2667 10.0143 21.3655 10.1276 21.4644 10.2409C21.533 10.3191 21.6016 10.3973 21.6703 10.4755C21.8109 10.6357 21.9513 10.796 22.0916 10.9565C22.2905 11.184 22.4898 11.4111 22.6891 11.6381C22.9905 11.9813 23.2916 12.3247 23.5925 12.6683C23.3531 12.7526 23.1408 12.7273 22.8924 12.7107C22.8408 12.7076 22.7891 12.7044 22.7359 12.7012C22.5671 12.691 22.3984 12.6802 22.2297 12.6695C21.9976 12.655 21.7656 12.6409 21.5335 12.627C21.4469 12.6218 21.4469 12.6218 21.3586 12.6165C21.0097 12.5961 20.6613 12.5813 20.3119 12.5723C20.2323 12.5702 20.1526 12.5682 20.0705 12.566C19.9244 12.5628 19.7783 12.5603 19.6321 12.5588C19.5675 12.5573 19.5029 12.5559 19.4364 12.5543C19.3812 12.5537 19.3259 12.553 19.2691 12.5523C18.9114 12.4865 18.6978 12.1695 18.4699 11.9075C18.436 11.8689 18.4022 11.8304 18.3672 11.7907C18.2597 11.6683 18.1526 11.5456 18.0454 11.4228C17.9723 11.3395 17.8992 11.2561 17.826 11.1728C17.6473 10.9692 17.4689 10.7653 17.2907 10.5612C17.52 10.3723 17.52 10.3723 17.6707 10.3538C18.3773 10.437 18.8527 10.6202 19.4285 11.0238C19.4574 10.8846 19.6266 11.069 19.6562 10.9269C18.581 10.3057 18.581 10.3057 17.3916 10.3049C16.9246 10.4823 16.6235 10.6638 16.4029 11.1291C16.369 11.2162 16.3359 11.3036 16.3036 11.3914C16.2863 11.4363 16.2691 11.4812 16.2513 11.5275C16.2092 11.6373 16.1681 11.7474 16.1272 11.8576C15.9827 11.7881 15.8383 11.7185 15.6896 11.6468C15.7254 11.5839 15.7613 11.521 15.7982 11.4562C15.8455 11.373 15.8928 11.2898 15.9401 11.2066C15.9637 11.1652 15.9873 11.1238 16.0117 11.0812C16.1235 10.8843 16.1015 10.8946 16.2917 10.5844C16.4058 10.4887 16.4523 10.433 16.6051 10.3857C16.7169 10.3119 16.8287 10.2381 16.9439 10.1621C16.5067 9.64508 16.5067 9.64508 16.0606 9.11766C16.3118 9.02914 16.417 9.00956 16.6697 9.02253C16.7351 9.02562 16.8005 9.02871 16.8678 9.03189C16.9382 9.03578 17.0085 9.03967 17.081 9.04368C17.154 9.04729 17.227 9.0509 17.3023 9.05462C17.5361 9.06632 17.7698 9.0788 18.0036 9.09128C18.1592 9.09916 18.3149 9.10698 18.4705 9.11475C19.2265 9.153 19.2265 9.153 19.5316 9.17088C19.6652 9.17813 19.799 9.18369 19.9328 9.1878C19.9987 9.19045 20.0645 9.1931 20.1324 9.19583C20.1912 9.19759 20.2499 9.19935 20.3104 9.20117C20.6542 9.2651 20.854 9.54398 21.0752 9.79655Z" fill="#FBBF24"/>
<path d="M17.0249 11.5063C17.2853 11.7463 17.5252 11.9934 17.7475 12.2697C17.7899 12.3218 17.8324 12.374 17.8762 12.4278C17.9629 12.5352 18.0485 12.6435 18.133 12.7528C18.3475 13.0123 18.5033 13.1905 18.8458 13.2385C18.9607 13.2434 19.0757 13.2457 19.1906 13.2459C19.3253 13.2523 19.4599 13.2588 19.5946 13.2655C19.8056 13.2727 20.0166 13.2791 20.2276 13.2853C20.3296 13.2888 20.3296 13.2888 20.4336 13.2924C20.4948 13.2942 20.5561 13.2961 20.6192 13.2979C20.7757 13.313 20.7757 13.313 20.9632 13.4034C20.5313 14.4928 20.5313 14.4928 20.2191 14.7196C20.0319 14.7735 19.8711 14.7916 19.6766 14.7952C19.6105 14.8 19.5444 14.8047 19.4762 14.8096C18.6753 14.8486 17.9608 14.664 17.3358 14.1416C16.9174 13.717 16.6454 13.2618 16.4501 12.6995C16.4956 12.5689 16.4956 12.5689 16.5695 12.4203C16.5957 12.3671 16.6218 12.3139 16.6488 12.259C16.6767 12.2037 16.7047 12.1483 16.7335 12.0913C16.7612 12.0352 16.7889 11.9792 16.8174 11.9214C16.886 11.7828 16.9552 11.6444 17.0249 11.5063Z" fill="#FBBF24"/>
<path d="M31.392 27V11.7273H36.8807V27H31.392ZM34.1364 10.1364C33.3939 10.1364 32.7576 9.8911 32.2273 9.40057C31.697 8.91004 31.4318 8.32008 31.4318 7.63068C31.4318 6.94129 31.697 6.35133 32.2273 5.86079C32.7576 5.37026 33.3939 5.125 34.1364 5.125C34.8854 5.125 35.5218 5.37026 36.0455 5.86079C36.5758 6.35133 36.8409 6.94129 36.8409 7.63068C36.8409 8.32008 36.5758 8.91004 36.0455 9.40057C35.5218 9.8911 34.8854 10.1364 34.1364 10.1364ZM45.1658 6.63636V27H39.6772V6.63636H45.1658ZM52.9041 11.0909V6.63636H70.603V11.0909H64.478V27H59.0291V11.0909H52.9041ZM77.8665 27.2784C76.2358 27.2784 74.8305 26.9669 73.6506 26.3438C72.4773 25.714 71.5724 24.8125 70.9361 23.6392C70.3063 22.4593 69.9915 21.0473 69.9915 19.4034C69.9915 17.8258 70.3097 16.447 70.946 15.267C71.5824 14.0871 72.4806 13.169 73.6406 12.5128C74.8007 11.8565 76.1695 11.5284 77.7472 11.5284C78.9006 11.5284 79.9446 11.7074 80.8793 12.0653C81.8139 12.4233 82.6127 12.9437 83.2756 13.6264C83.9384 14.3026 84.4489 15.1245 84.8068 16.0923C85.1648 17.0601 85.3438 18.1506 85.3438 19.3636V20.6364H71.7017V17.6136H80.2926C80.286 17.1761 80.1733 16.7917 79.9545 16.4602C79.7424 16.1222 79.4541 15.8603 79.0895 15.6747C78.7315 15.4825 78.3239 15.3864 77.8665 15.3864C77.4223 15.3864 77.0147 15.4825 76.6435 15.6747C76.2723 15.8603 75.974 16.1188 75.7486 16.4503C75.5298 16.7817 75.4138 17.1695 75.4006 17.6136V20.875C75.4006 21.3655 75.5033 21.803 75.7088 22.1875C75.9143 22.572 76.2093 22.8736 76.5938 23.0923C76.9782 23.3111 77.4422 23.4205 77.9858 23.4205C78.3636 23.4205 78.7083 23.3674 79.0199 23.2614C79.3381 23.1553 79.6098 23.0028 79.8352 22.804C80.0606 22.5985 80.2263 22.3532 80.3324 22.0682H85.3438C85.1714 23.1288 84.7637 24.0502 84.1207 24.8324C83.4777 25.608 82.6259 26.2112 81.5653 26.642C80.5114 27.0663 79.2784 27.2784 77.8665 27.2784ZM94.9414 27.2784C93.2842 27.2784 91.8656 26.9503 90.6857 26.294C89.5058 25.6312 88.601 24.7098 87.9712 23.5298C87.3415 22.3433 87.0266 20.9678 87.0266 19.4034C87.0266 17.839 87.3415 16.4669 87.9712 15.2869C88.601 14.1004 89.5058 13.179 90.6857 12.5227C91.8656 11.8598 93.2842 11.5284 94.9414 11.5284C96.4395 11.5284 97.7354 11.8002 98.8292 12.3438C99.9296 12.8807 100.781 13.643 101.385 14.6307C101.988 15.6117 102.293 16.7652 102.299 18.0909H97.2085C97.1355 17.2888 96.9035 16.679 96.5124 16.2614C96.128 15.8371 95.6308 15.625 95.021 15.625C94.5437 15.625 94.1261 15.7642 93.7681 16.0426C93.4102 16.3144 93.1317 16.7287 92.9329 17.2855C92.734 17.8357 92.6346 18.5284 92.6346 19.3636C92.6346 20.1989 92.734 20.8949 92.9329 21.4517C93.1317 22.0019 93.4102 22.4162 93.7681 22.6946C94.1261 22.9664 94.5437 23.1023 95.021 23.1023C95.4253 23.1023 95.7833 23.0095 96.0948 22.8239C96.4064 22.6316 96.6583 22.3532 96.8505 21.9886C97.0494 21.6174 97.1687 21.1667 97.2085 20.6364H102.299C102.279 21.982 101.971 23.1553 101.375 24.1562C100.778 25.1506 99.9329 25.9195 98.8391 26.4631C97.752 27.0066 96.4528 27.2784 94.9414 27.2784ZM110.053 18.4091V27H104.564V6.63636H109.854V14.6307H110.013C110.357 13.6562 110.931 12.8973 111.733 12.3537C112.535 11.8035 113.5 11.5284 114.626 11.5284C115.707 11.5284 116.645 11.7737 117.44 12.2642C118.242 12.7547 118.862 13.4309 119.3 14.2926C119.744 15.1544 119.963 16.142 119.956 17.2557V27H114.467V18.4091C114.474 17.6534 114.285 17.0601 113.901 16.6293C113.523 16.1984 112.982 15.983 112.28 15.983C111.836 15.983 111.445 16.0824 111.107 16.2812C110.775 16.4735 110.517 16.7519 110.331 17.1165C110.152 17.4744 110.059 17.9053 110.053 18.4091Z" fill="#3784E6"/>
</svg>
