<svg width="24" height="27" viewBox="0 0 24 27" fill="none" xmlns="http://www.w3.org/2000/svg">
<path d="M2.16699 5.83301V24.5H18.167V26.167H2.66699C2.09243 26.167 1.54108 25.9385 1.13477 25.5322C0.728437 25.1259 0.5 24.5746 0.5 24V5.83301H2.16699ZM8 0.5H8.83301V7.66699L9.63379 7.06641L12 5.29102L14.3662 7.06641L15.167 7.66699V0.5H21.333C21.9076 0.5 22.4589 0.728437 22.8652 1.13477C23.2716 1.54109 23.5 2.09236 23.5 2.66699V18.667C23.4999 19.2415 23.2715 19.793 22.8652 20.1992C22.4589 20.6053 21.9075 20.833 21.333 20.833H8C7.42544 20.833 6.87409 20.6054 6.46777 20.1992C6.06152 19.793 5.83309 19.2415 5.83301 18.667V2.66699C5.83301 2.09243 6.06155 1.54108 6.46777 1.13477C6.8741 0.728437 7.42536 0.5 8 0.5Z" fill="#3B82F6" stroke="#3B82F6"/>
</svg>
