<svg width="20" height="25" viewBox="0 0 20 25" fill="none" xmlns="http://www.w3.org/2000/svg">
<path d="M10 2.58618C7.92293 2.58618 5.93094 3.43975 4.46223 4.9591C2.99352 6.47846 2.16841 8.53915 2.16841 10.6878V14.7711C2.16857 14.9506 2.12836 15.1277 2.05094 15.2884L0.129963 19.2617C0.0361251 19.4558 -0.00818416 19.6715 0.00124331 19.8884C0.0106708 20.1052 0.0735219 20.3159 0.183827 20.5005C0.294133 20.6851 0.44823 20.8375 0.631483 20.9432C0.814736 21.0489 1.02106 21.1043 1.23086 21.1043H18.7691C18.9789 21.1043 19.1853 21.0489 19.3685 20.9432C19.5518 20.8375 19.7059 20.6851 19.8162 20.5005C19.9265 20.3159 19.9893 20.1052 19.9988 19.8884C20.0082 19.6715 19.9639 19.4558 19.87 19.2617L17.9502 15.2884C17.8724 15.1278 17.8318 14.9507 17.8316 14.7711V10.6878C17.8316 8.53915 17.0065 6.47846 15.5378 4.9591C14.0691 3.43975 12.0771 2.58618 10 2.58618ZM10 24.5764C9.30562 24.5768 8.62821 24.3544 8.06114 23.9398C7.49408 23.5252 7.06526 22.9389 6.8338 22.2617H13.1662C12.9347 22.9389 12.5059 23.5252 11.9389 23.9398C11.3718 24.3544 10.6944 24.5768 10 24.5764Z" fill="#515863"/>
</svg>
