<svg width="36" height="36" viewBox="0 0 36 36" fill="none" xmlns="http://www.w3.org/2000/svg">
<path d="M20.6992 28.35H14.3992L13.6492 26.325H2.32422V7.05002C2.32422 6.15002 3.07422 5.40002 3.97422 5.40002H32.0242C32.9242 5.40002 33.6742 6.15002 33.6742 7.05002V26.4H22.1992L20.6992 28.35ZM15.2242 27.225H20.1742L21.6742 25.2H32.5492V7.05002C32.5492 6.75002 32.3242 6.52502 32.0242 6.52502H3.97422C3.67422 6.52502 3.44922 6.75002 3.44922 7.05002V25.275H14.4742L15.2242 27.225Z" fill="white"/>
<path d="M30.5984 30.6H5.39844C2.69844 30.6 0.523438 28.425 0.523438 25.725V25.125H14.3984L15.1484 27.15H20.0984L21.5984 25.125H35.3984V25.725C35.4734 28.425 33.2234 30.6 30.5984 30.6ZM1.72344 26.325C2.02344 28.125 3.52344 29.475 5.39844 29.475H30.5234C32.3984 29.475 33.9734 28.125 34.1984 26.325H22.1984L20.6984 28.35H14.3984L13.6484 26.325H1.72344Z" fill="white"/>
<path d="M12.525 9.375H6.75V14.4H12.525V9.375Z" fill="white"/>
<path d="M13.0484 14.925H6.14844V8.77502H13.0484V14.925ZM7.27344 13.8H11.9234V9.90002H7.27344V13.8Z" fill="white"/>
<path d="M12.525 17.325H6.75V22.3499H12.525V17.325Z" fill="white"/>
<path d="M13.0484 22.95H6.14844V16.8H13.0484V22.95ZM7.27344 21.825H11.9234V17.925H7.27344V21.825Z" fill="white"/>
<path d="M29.55 11.25H16.125V12.375H29.55V11.25Z" fill="white"/>
<path d="M29.55 19.275H16.125V20.4H29.55V19.275Z" fill="white"/>
</svg>
