<svg width="15" height="15" viewBox="0 0 15 15" fill="none" xmlns="http://www.w3.org/2000/svg">
<path fill-rule="evenodd" clip-rule="evenodd" d="M12.7532 2.17982C11.3502 0.774643 9.48375 0.00107143 7.49571 0C3.39857 0 0.0637501 3.33429 0.0626786 7.4325C0.0621429 8.74286 0.404464 10.0216 1.05482 11.1482L0 15L3.94018 13.9666C5.02554 14.5591 6.24804 14.8709 7.49196 14.8714H7.49518C11.5918 14.8714 14.9266 11.5371 14.9277 7.43893C14.9282 5.4525 14.1562 3.58554 12.7527 2.18089L12.7532 2.17982ZM7.49571 13.6157H7.49304C6.38464 13.6157 5.29714 13.3173 4.34839 12.7548L4.12286 12.6209L1.78446 13.2343L2.40857 10.9543L2.26179 10.7207C1.64357 9.73714 1.31679 8.60036 1.31732 7.43304C1.31893 4.02696 4.09018 1.25571 7.49786 1.25571C9.14786 1.25625 10.6987 1.89964 11.8655 3.0675C13.0318 4.23482 13.6741 5.78732 13.673 7.43786C13.6714 10.8445 10.9007 13.6157 7.49571 13.6157ZM10.8841 8.98929C10.6982 8.89607 9.78536 8.44714 9.615 8.385C9.44464 8.32286 9.32089 8.29179 9.19714 8.47821C9.07339 8.66411 8.71768 9.0825 8.60893 9.20625C8.50071 9.33053 8.39196 9.34554 8.20661 9.25232C8.02071 9.15911 7.42232 8.96304 6.71304 8.33089C6.16125 7.83857 5.78839 7.23054 5.67964 7.04411C5.57143 6.85821 5.66839 6.7575 5.76107 6.66536C5.84464 6.58179 5.94696 6.44839 6.03964 6.34018C6.13286 6.23196 6.16339 6.15429 6.22554 6.03054C6.28768 5.90625 6.25661 5.79804 6.21 5.70536C6.16339 5.61214 5.79214 4.69821 5.63732 4.32643C5.48679 3.96429 5.33357 4.01357 5.21946 4.00768C5.11125 4.00232 4.9875 4.00125 4.86321 4.00125C4.73893 4.00125 4.53804 4.04732 4.36768 4.23375C4.19732 4.41964 3.71786 4.86911 3.71786 5.78304C3.71786 6.69696 4.38321 7.58036 4.47643 7.70464C4.56964 7.82893 5.78625 9.70446 7.64893 10.5091C8.09196 10.7004 8.43804 10.815 8.70804 10.9002C9.15268 11.0416 9.55768 11.0218 9.8775 10.9741C10.2343 10.9205 10.9762 10.5246 11.1311 10.0907C11.2859 9.65679 11.2859 9.285 11.2393 9.20732C11.1927 9.12964 11.0689 9.08304 10.883 8.99036L10.8841 8.98929Z" fill="#FBBF24"/>
</svg>
