<svg width="28" height="20" viewBox="0 0 28 20" fill="none" xmlns="http://www.w3.org/2000/svg">
<path d="M7.77778 0H4.66667C2.09336 0 0 1.92248 0 4.28571V7.14286C0 9.50609 2.09336 11.4286 4.66667 11.4286H7.77778C8.27722 11.4286 8.74948 11.3372 9.20101 11.203C8.57381 14.5677 5.39684 17.1429 1.55556 17.1429C0.695748 17.1429 0 17.7818 0 18.5714C0 19.361 0.695748 20 1.55556 20C7.55907 20 12.4444 15.5134 12.4444 10V4.28571C12.4444 1.92248 10.3511 0 7.77778 0ZM23.3333 0H20.2222C17.6489 0 15.5556 1.92248 15.5556 4.28571V7.14286C15.5556 9.50609 17.6489 11.4286 20.2222 11.4286H23.3333C23.8328 11.4286 24.305 11.3372 24.7566 11.203C24.1294 14.5677 20.9524 17.1429 17.1111 17.1429C16.2513 17.1429 15.5556 17.7818 15.5556 18.5714C15.5556 19.361 16.2513 20 17.1111 20C23.1146 20 28 15.5134 28 10V4.28571C28 1.92248 25.9066 0 23.3333 0Z" fill="#FBBF24" fill-opacity="0.91"/>
</svg>
