<svg width="14" height="14" viewBox="0 0 14 14" fill="none" xmlns="http://www.w3.org/2000/svg">
<path d="M7.7 12.6V14H6.3V12.6H0.7C0.504 12.6 0.338333 12.5323 0.203 12.397C0.0676667 12.2617 0 12.096 0 11.9V0.7C0 0.504 0.0676667 0.338333 0.203 0.202999C0.338333 0.0676661 0.504 0 0.7 0H4.9C5.31067 0 5.698 0.0839996 6.062 0.252C6.426 0.419999 6.73867 0.653333 7 0.952C7.26133 0.653333 7.574 0.419999 7.938 0.252C8.302 0.0839996 8.68933 0 9.1 0H13.3C13.496 0 13.6617 0.0676661 13.797 0.202999C13.9323 0.338333 14 0.504 14 0.7V11.9C14 12.096 13.9323 12.2617 13.797 12.397C13.6617 12.5323 13.496 12.6 13.3 12.6H7.7ZM12.6 11.2V1.4H9.1C8.848 1.4 8.61467 1.463 8.4 1.589C8.18533 1.715 8.015 1.88533 7.889 2.1C7.763 2.31467 7.7 2.548 7.7 2.8V11.2H12.6ZM6.3 11.2V2.8C6.3 2.548 6.237 2.31467 6.111 2.1C5.985 1.88533 5.81467 1.715 5.6 1.589C5.38533 1.463 5.152 1.4 4.9 1.4H1.4V11.2H6.3Z" fill="#6B7280"/>
</svg>
