<svg width="15" height="15" viewBox="0 0 15 15" fill="none" xmlns="http://www.w3.org/2000/svg">
<path d="M0.292893 12.5429C-0.0976311 12.9334 -0.097631 13.5666 0.292893 13.9571C0.683418 14.3476 1.31658 14.3476 1.70711 13.9571L1 13.25L0.292893 12.5429ZM14.25 0.999998C14.25 0.447713 13.8023 -1.92822e-06 13.25 -1.88166e-06L4.25 -1.12302e-06C3.69772 -1.07647e-06 3.25 0.447714 3.25 0.999999C3.25 1.55228 3.69772 2 4.25 2L12.25 2L12.25 10C12.25 10.5523 12.6977 11 13.25 11C13.8023 11 14.25 10.5523 14.25 10L14.25 0.999998ZM1 13.25L1.70711 13.9571L13.9571 1.7071L13.25 0.999998L12.5429 0.292891L0.292893 12.5429L1 13.25Z" fill="#3B82F6"/>
</svg>
