<svg width="40" height="41" viewBox="0 0 40 41" fill="none" xmlns="http://www.w3.org/2000/svg">
<path d="M0.85099 20.4999H36.5926C36.8183 20.4999 37.0347 20.4099 37.1943 20.2497C37.3539 20.0895 37.4436 19.8722 37.4436 19.6457V13.6666C37.4437 13.4422 37.3999 13.2199 37.3144 13.0125C37.229 12.8052 37.1037 12.6167 36.9457 12.4579L25.0319 0.499684C24.8737 0.341093 24.6859 0.215337 24.4793 0.1296C24.2727 0.0438625 24.0513 -0.000175933 23.8277 5.2821e-07H3.40396C2.50117 5.2821e-07 1.63536 0.359967 0.996997 1.00071C0.35863 1.64146 0 2.51049 0 3.41664V19.6457C0 19.8722 0.0896578 20.0895 0.249249 20.2497C0.408841 20.4099 0.625293 20.4999 0.85099 20.4999ZM23.8277 4.2708L33.1886 13.6666H23.8277V4.2708ZM39.9965 39.4046C39.9585 39.8437 39.7564 40.2521 39.4309 40.5479C39.1054 40.8438 38.6805 41.0051 38.2414 40.9997H32.3376C31.8862 40.9997 31.4533 40.8197 31.1341 40.4993C30.815 40.179 30.6356 39.7445 30.6356 39.2914V27.3908C30.6302 26.9501 30.791 26.5236 31.0858 26.1968C31.3805 25.8701 31.7874 25.6673 32.2249 25.6291C32.4577 25.6136 32.6912 25.6463 32.9109 25.7251C33.1306 25.804 33.3317 25.9274 33.5019 26.0876C33.6721 26.2478 33.8077 26.4414 33.9002 26.6564C33.9926 26.8714 34.0401 27.1032 34.0396 27.3374V37.5873H38.2946C38.5275 37.5869 38.758 37.6344 38.9719 37.727C39.1858 37.8195 39.3785 37.9552 39.5381 38.1256C39.6976 38.2959 39.8206 38.4973 39.8995 38.7173C39.9784 38.9373 40.0114 39.1712 39.9965 39.4046ZM11.0246 36.7951C10.9582 37.4485 10.7485 38.079 10.4105 38.6413C10.0724 39.2037 9.61441 39.6838 9.06943 40.0473C7.96527 40.7862 6.59517 40.9997 5.34847 40.9997C4.26118 40.994 3.17895 40.8505 2.12748 40.5726C1.6979 40.4463 1.33518 40.1553 1.11788 39.7625C0.900579 39.3697 0.846193 38.9068 0.966501 38.474C1.08681 38.0413 1.37213 37.6735 1.76065 37.4504C2.14918 37.2273 2.60963 37.1668 3.04229 37.282C3.97412 37.5382 6.22287 37.8585 7.2015 37.2051C7.39085 37.0791 7.59083 36.8805 7.65678 36.3659C7.73124 35.7957 7.50573 35.4904 4.93787 34.7451C2.94868 34.1686 -0.380818 33.2012 0.0446768 29.8102C0.110901 29.1697 0.316773 28.5516 0.647681 27.9999C0.97859 27.4481 1.42642 26.9763 1.9594 26.6178C4.47834 24.9095 8.49501 25.911 8.94391 26.0284C9.16015 26.0856 9.36305 26.185 9.54102 26.3209C9.71899 26.4568 9.86855 26.6266 9.98116 26.8205C10.0938 27.0145 10.1672 27.2287 10.1973 27.4512C10.2274 27.6736 10.2136 27.8998 10.1566 28.1168C10.0996 28.3339 10.0005 28.5375 9.86514 28.7162C9.72973 28.8948 9.56059 29.0449 9.36738 29.1579C9.17417 29.271 8.96068 29.3447 8.73908 29.3749C8.51749 29.4051 8.29214 29.3912 8.0759 29.334C7.12066 29.0842 4.83788 28.7873 3.85924 29.4536C3.73096 29.5404 3.62535 29.657 3.5513 29.7934C3.47725 29.9297 3.43694 30.082 3.43374 30.2373C3.40822 30.4295 3.40396 30.4679 3.67202 30.643C4.16347 30.9612 5.04212 31.2153 5.89523 31.463C7.97803 32.0673 11.5011 33.0987 11.0246 36.7951ZM26.1297 37.4848C26.8555 36.2152 27.2356 34.7761 27.2317 33.3123C27.2317 29.0735 24.1788 25.6248 20.4238 25.6248C16.6688 25.6248 13.6158 29.0735 13.6158 33.3123C13.6158 37.551 16.6688 40.9997 20.4238 40.9997C21.626 40.9952 22.801 40.6406 23.8064 39.979L24.3256 40.5C24.491 40.666 24.6888 40.796 24.9066 40.8818C25.1243 40.9676 25.3573 41.0075 25.5911 40.9989C25.8249 40.9902 26.0544 40.9333 26.2653 40.8317C26.4762 40.7301 26.6639 40.5859 26.8168 40.4082C27.0961 40.0695 27.2378 39.6376 27.2137 39.1986C27.1897 38.7597 27.0016 38.3459 26.687 38.04L26.1297 37.4848ZM20.4238 37.5831C18.5473 37.5831 17.0198 35.6612 17.0198 33.3123C17.0198 30.9633 18.5473 29.0415 20.4238 29.0415C22.3002 29.0415 23.8277 30.9633 23.8277 33.3123C23.828 33.8567 23.7433 34.3978 23.5767 34.9159L23.3788 34.7174C23.0647 34.3925 22.6376 34.202 22.1869 34.1856C21.7361 34.1693 21.2965 34.3285 20.9599 34.6298C20.7936 34.7865 20.6605 34.9751 20.5682 35.1844C20.476 35.3938 20.4267 35.6196 20.4231 35.8484C20.4195 36.0773 20.4618 36.3046 20.5474 36.5167C20.6331 36.7288 20.7603 36.9216 20.9216 37.0834L21.279 37.44C21.0032 37.5325 20.7146 37.5808 20.4238 37.5831Z" fill="black"/>
</svg>
