<svg width="24" height="23.25" viewBox="0 0 24 23.25" fill="none" xmlns="http://www.w3.org/2000/svg"><path d="M11.022 0.619c0.24 -0.825 1.411 -0.825 1.651 0l2.031 6.965c0.109 0.377 0.46 0.631 0.852 0.619l7.251 -0.22c0.86 -0.026 1.222 1.087 0.511 1.571l-5.996 4.084c-0.324 0.22 -0.458 0.633 -0.326 1.002l2.451 6.828c0.29 0.81 -0.656 1.498 -1.337 0.971l-5.737 -4.44c-0.31 -0.24 -0.742 -0.24 -1.053 0l-5.738 4.44c-0.679 0.527 -1.627 -0.161 -1.336 -0.971l2.451 -6.828a0.862 0.862 0 0 0 -0.326 -1.002L0.377 9.553c-0.711 -0.484 -0.35 -1.597 0.51 -1.571l7.252 0.22c0.392 0.012 0.742 -0.242 0.852 -0.619z" fill="#FAB437"/></svg>