<svg width="15" height="11" viewBox="0 0 15 11" fill="none" xmlns="http://www.w3.org/2000/svg">
<path d="M9.54545 6.81818C7.725 6.81818 4.09091 7.725 4.09091 9.54545V10.9091H15V9.54545C15 7.725 11.3659 6.81818 9.54545 6.81818ZM3.40909 4.09091V2.04545H2.04545V4.09091H0V5.45455H2.04545V7.5H3.40909V5.45455H5.45455V4.09091M9.54545 5.45455C10.2688 5.45455 10.9625 5.16721 11.4739 4.65575C11.9854 4.14428 12.2727 3.45059 12.2727 2.72727C12.2727 2.00396 11.9854 1.31026 11.4739 0.7988C10.9625 0.287337 10.2688 0 9.54545 0C8.82214 0 8.12844 0.287337 7.61698 0.7988C7.10552 1.31026 6.81818 2.00396 6.81818 2.72727C6.81818 3.45059 7.10552 4.14428 7.61698 4.65575C8.12844 5.16721 8.82214 5.45455 9.54545 5.45455Z" fill="white"/>
</svg>
