<svg width="11" height="11" viewBox="0 0 11 11" fill="none" xmlns="http://www.w3.org/2000/svg">
<path d="M0.243457 8.61748C-0.0794462 8.94038 -0.0794462 9.46391 0.243457 9.78682C0.56636 10.1097 1.08989 10.1097 1.41279 9.78682L0.828125 9.20215L0.243457 8.61748ZM10.03 0.827149C10.03 0.370495 9.65978 0.000303797 9.20312 0.000303456L1.76151 0.000303957C1.30486 0.000303995 0.934669 0.370495 0.934669 0.82715C0.934669 1.2838 1.30486 1.654 1.76151 1.654L8.37628 1.65399L8.37628 8.26876C8.37628 8.72541 8.74647 9.0956 9.20312 9.0956C9.65978 9.0956 10.03 8.72541 10.03 8.26876L10.03 0.827149ZM0.828125 9.20215L1.41279 9.78682L9.78779 1.41182L9.20312 0.827149L8.61846 0.242481L0.243457 8.61748L0.828125 9.20215Z" fill="#3B82F6"/>
</svg>
